<svg width="23" height="23" viewBox="0 0 23 23" fill="none" xmlns="http://www.w3.org/2000/svg">
<path d="M3.96326 16.1073L2.66133 15.7425L3.41265 16.8666C4.20961 18.059 5.26107 19.0598 6.49131 19.797C7.72155 20.5342 9.09997 20.9895 10.5273 21.1299C11.9546 21.2704 13.3953 21.0926 14.7457 20.6093C16.096 20.126 17.3224 19.3493 18.3365 18.3352C19.3506 17.321 20.1271 16.0945 20.6103 14.7441C21.0934 13.3938 21.2711 11.953 21.1305 10.5257C20.9899 9.09842 20.5346 7.72005 19.7973 6.48987C19.06 5.25969 18.059 4.20833 16.8665 3.41148L15.7424 2.66026L16.1073 3.96216C16.5792 5.64563 16.5944 7.42439 16.1512 9.11566C15.708 10.8069 14.8226 12.3497 13.5857 13.5854L13.5855 13.5857C12.3498 14.8224 10.8072 15.7077 9.11618 16.1509C7.42512 16.594 5.64658 16.579 3.96326 16.1073ZM11.5 22.5C5.42469 22.5 0.5 17.5753 0.5 11.5C0.5 5.42469 5.42469 0.5 11.5 0.5C17.5753 0.5 22.5 5.42469 22.5 11.5C22.5 17.5753 17.5753 22.5 11.5 22.5Z" fill="#151414" stroke="#151414"/>
</svg>
