<svg width="26" height="26" viewBox="0 0 26 26" fill="none" xmlns="http://www.w3.org/2000/svg">
<g clip-path="url(#clip0_57_1085)">
<path d="M15.2222 20.6667H20.7778V4.33333H5.22222V20.6667H13V14.8333H10.7778V12.5H13V10.5703C13 9.0105 13.1556 8.44467 13.4444 7.87417C13.729 7.30972 14.1688 6.8483 14.7067 6.55C15.1311 6.31083 15.6589 6.16733 16.5811 6.1055C16.9467 6.081 17.42 6.11133 18.0011 6.19883V8.4155H17.4444C16.4256 8.4155 16.0044 8.46567 15.7533 8.60683C15.6035 8.68775 15.4815 8.81584 15.4044 8.97317C15.2711 9.23683 15.2222 9.49817 15.2222 10.5692V12.5H18L17.4444 14.8333H15.2222V20.6667ZM4.11111 2H21.8889C22.1836 2 22.4662 2.12292 22.6746 2.34171C22.8829 2.5605 23 2.85725 23 3.16667V21.8333C23 22.1428 22.8829 22.4395 22.6746 22.6583C22.4662 22.8771 22.1836 23 21.8889 23H4.11111C3.81643 23 3.53381 22.8771 3.32544 22.6583C3.11706 22.4395 3 22.1428 3 21.8333V3.16667C3 2.85725 3.11706 2.5605 3.32544 2.34171C3.53381 2.12292 3.81643 2 4.11111 2Z" fill="#15AF73"/>
</g>
<defs>
<clipPath id="clip0_57_1085">
<rect width="26" height="26" fill="white"/>
</clipPath>
</defs>
</svg>
