<svg width="19" height="21" viewBox="0 0 19 21" fill="none" xmlns="http://www.w3.org/2000/svg">
<path d="M7.10256 17.2892C2.74359 18.6446 2.74359 15.0302 1 14.5783M13.2051 20V16.503C13.2378 16.0722 13.1817 15.639 13.0404 15.2324C12.8991 14.8257 12.6759 14.4549 12.3856 14.1446C15.1231 13.8284 18 12.7531 18 7.81935C17.9998 6.55776 17.5316 5.34454 16.6923 4.43082C17.0897 3.32706 17.0616 2.10705 16.6138 1.02421C16.6138 1.02421 15.5851 0.707947 13.2051 2.36155C11.207 1.80025 9.10071 1.80025 7.10256 2.36155C4.72256 0.707947 3.69385 1.02421 3.69385 1.02421C3.24607 2.10705 3.21797 3.32706 3.61538 4.43082C2.76985 5.35132 2.30117 6.5755 2.30769 7.84646C2.30769 12.744 5.18462 13.8193 7.92205 14.1717C7.63523 14.4789 7.41402 14.8453 7.27283 15.2469C7.13164 15.6486 7.07363 16.0766 7.10256 16.503V20" stroke="#15AF73" stroke-width="1.7" stroke-linecap="round" stroke-linejoin="round"/>
</svg>
