<svg width="26" height="26" viewBox="0 0 26 26" fill="none" xmlns="http://www.w3.org/2000/svg">
<g clip-path="url(#clip0_57_1088)">
<path d="M6.37333 20.2075C6.04833 19.9909 5.76883 19.7146 5.44166 19.3235C5.27184 19.1157 5.10356 18.9066 4.93683 18.6963C4.43525 18.0734 4.11891 17.7863 3.79175 17.6682C3.52124 17.5711 3.30038 17.3705 3.17777 17.1106C3.05517 16.8506 3.04084 16.5526 3.13796 16.2821C3.23507 16.0116 3.43566 15.7907 3.69561 15.6681C3.95556 15.5455 4.25357 15.5312 4.52408 15.6283C5.33875 15.9208 5.89016 16.4245 6.63333 17.3486C6.5315 17.2219 7.00166 17.8112 7.10241 17.9325C7.30825 18.1785 7.45991 18.328 7.57908 18.407C7.80008 18.5555 8.215 18.6194 8.82491 18.5587C8.84983 18.1449 8.92675 17.743 9.04375 17.3725C5.82841 16.586 4.00841 14.5125 4.00841 10.4435C4.00841 9.10013 4.40925 7.89113 5.15458 6.87713C4.91841 5.90863 4.95416 4.73754 5.48175 3.41913C5.54162 3.26999 5.63392 3.13604 5.75197 3.02699C5.87001 2.91794 6.01084 2.83652 6.16425 2.78863C6.252 2.76263 6.30183 2.75071 6.38958 2.73771C7.2595 2.60446 8.488 2.92188 10.0892 3.92504C11.0434 3.70197 12.0202 3.59 13.0001 3.59138C13.9881 3.59138 14.9696 3.70404 15.9077 3.92504C17.5078 2.91429 18.7385 2.59688 19.6149 2.73771C19.707 2.75179 19.785 2.77021 19.8511 2.79188C20.0015 2.84147 20.1392 2.92343 20.2545 3.03199C20.3698 3.14055 20.4599 3.27307 20.5184 3.42021C21.046 4.73754 21.0817 5.90863 20.8456 6.87604C21.5942 7.89004 21.9917 9.09146 21.9917 10.4435C21.9917 14.5135 20.1782 16.5805 16.9629 17.3681C17.0983 17.8177 17.1687 18.3204 17.1687 18.8631C17.1688 19.8439 17.1645 20.8247 17.1557 21.8055C17.399 21.8585 17.6166 21.9938 17.7719 22.1885C17.9271 22.3832 18.0106 22.6254 18.0081 22.8744C18.0057 23.1234 17.9176 23.364 17.7586 23.5556C17.5996 23.7473 17.3794 23.8783 17.1352 23.9266C15.9012 24.1736 14.9869 23.3503 14.9869 22.2745L14.9891 21.7914L14.9945 21.0276C14.9999 20.2606 15.0021 19.5781 15.0021 18.8631C15.0021 18.108 14.8038 17.6151 14.5417 17.3898C13.8256 16.7723 14.1885 15.5969 15.1267 15.4918C18.3409 15.131 19.8251 13.8863 19.8251 10.4435C19.8251 9.40888 19.4871 8.55413 18.836 7.83913C18.6988 7.68881 18.6068 7.50289 18.5704 7.30267C18.534 7.10245 18.5547 6.89603 18.6302 6.70704C18.81 6.25854 18.8869 5.67029 18.7342 4.95854L18.7233 4.96179C18.1914 5.11238 17.5208 5.43846 16.7105 5.98988C16.5798 6.07855 16.4314 6.13759 16.2755 6.16285C16.1196 6.18812 15.9601 6.179 15.8081 6.13613C14.8936 5.88294 13.9489 5.75574 13.0001 5.75804C12.0359 5.75804 11.0804 5.88696 10.1921 6.13721C10.0407 6.17974 9.88178 6.18878 9.7265 6.16371C9.57122 6.13864 9.42327 6.08006 9.29291 5.99204C8.47825 5.44279 7.80441 5.11779 7.26925 4.96613C7.11325 5.67354 7.19016 6.25963 7.36891 6.70704C7.44454 6.89593 7.46544 7.1023 7.42923 7.30251C7.39302 7.50272 7.30116 7.6887 7.16416 7.83913C6.51741 8.54763 6.17508 9.41863 6.17508 10.4435C6.17508 13.8798 7.66033 15.1321 10.8572 15.4918C11.7943 15.5969 12.1583 16.7669 11.4466 17.3855C11.2386 17.5675 10.9818 18.1785 10.9818 18.8631V22.2756C10.9818 23.3438 10.0772 24.1444 8.8585 23.931C8.61124 23.8875 8.38674 23.7596 8.22336 23.569C8.05997 23.3784 7.96785 23.137 7.96273 22.886C7.95762 22.635 8.03982 22.3901 8.1953 22.193C8.35078 21.9959 8.56988 21.8589 8.81516 21.8055V20.733C7.82933 20.799 7.01466 20.6376 6.37333 20.2075Z" fill="#15AF73"/>
</g>
<defs>
<clipPath id="clip0_57_1088">
<rect width="26" height="26" fill="white"/>
</clipPath>
</defs>
</svg>
