<svg width="24" height="24" viewBox="0 0 24 24" fill="none" xmlns="http://www.w3.org/2000/svg">
<g clip-path="url(#clip0_507_1556)">
<path d="M23.6075 4.89535C22.9965 4.89535 22.385 4.89535 21.7735 4.89535C21.4959 4.59953 21.1677 4.34552 20.8525 4.13227C19.9729 3.53696 18.9422 3.1481 17.9105 2.91866C15.8941 2.47021 13.4444 2.66726 12.144 4.46782C12.1314 4.48611 12.1158 4.50179 12.1027 4.52061C12.1158 4.50179 12.1309 4.48559 12.1445 4.4673C11.5837 3.66606 10.7208 3.14549 9.78105 2.89827C7.72595 2.35732 5.29663 2.94218 3.53318 4.06746C3.17411 4.29639 2.81661 4.57183 2.51974 4.89535C2.30336 5.13055 2.122 5.39136 1.99551 5.67987C1.96206 5.75565 1.92966 5.83196 1.90457 5.9114C1.80108 6.24016 1.84447 6.61177 1.84447 6.95097C1.84447 10.6347 1.84447 14.3184 1.84447 18.0026C1.84447 18.3549 1.84447 18.7077 1.84447 19.0589C1.84447 19.2152 2.01433 19.3746 2.17531 19.3108C3.37847 18.8389 4.68042 18.5326 5.95989 18.3727C7.90052 18.1296 10.2431 18.2535 11.6046 19.8168C8.93539 19.8168 6.26669 19.8168 3.59746 19.8168C2.65981 19.8168 1.72216 19.8168 0.783989 19.8168C0.783989 17.1334 0.783989 14.4506 0.783989 11.7683C0.783989 9.73884 0.783989 7.70935 0.783989 5.67987C1.18748 5.67987 1.5915 5.67987 1.99551 5.67987C2.122 5.39136 2.30336 5.13055 2.5187 4.89588C1.80997 4.89588 1.10124 4.89588 0.391995 4.89588C0.178227 4.89588 0 5.0741 0 5.28787C0 8.33654 0 11.3852 0 14.4339C0 16.5951 0 18.7552 0 20.9143C0 21.1281 0.178227 21.3063 0.391995 21.3063C2.84274 21.3063 5.29402 21.3063 7.74477 21.3063C11.8273 21.3063 15.9098 21.3063 19.9917 21.3063C21.1975 21.3063 22.4017 21.3063 23.607 21.3063C23.7136 21.3063 23.793 21.2671 23.8557 21.2107C23.8652 21.2034 23.8751 21.1981 23.8834 21.1898C23.8913 21.1809 23.8955 21.1731 23.9028 21.1647C23.9587 21.1025 24 21.0225 24 20.9143C24 17.8657 24 14.817 24 11.7683C24 9.60818 24 7.44802 24 5.28787C23.9995 5.07358 23.8212 4.89535 23.6075 4.89535ZM22.3029 5.67934C22.6071 5.67934 22.9113 5.67934 23.2155 5.67934C23.2155 8.59735 23.2155 11.5154 23.2155 14.4334C23.2155 16.2308 23.2155 18.0287 23.2155 19.8251C23.1998 19.8236 23.1883 19.8162 23.1716 19.8162C20.6822 19.8162 18.1927 19.8162 15.7028 19.8162C14.6831 19.8162 13.6639 19.8162 12.6437 19.8162C14.1573 18.5566 16.3765 18.4531 18.2617 18.5969C19.5548 18.6951 20.8729 18.9241 22.1132 19.3103C22.2763 19.362 22.444 19.2246 22.444 19.0594C22.444 15.8236 22.444 12.5873 22.444 9.35103C22.444 8.57331 22.444 7.79559 22.444 7.01787C22.444 6.68076 22.4827 6.32012 22.4054 5.98876C22.3798 5.88214 22.3453 5.77969 22.3029 5.67934C22.2585 5.57377 22.1963 5.47498 22.1357 5.3762C22.1963 5.47498 22.258 5.57324 22.3029 5.67934ZM12.2982 5.17236C12.2987 5.29362 12.3154 5.18961 12.3525 5.11853C12.4226 4.98421 12.5046 4.85668 12.5909 4.73228C13.1904 3.87094 14.2007 3.44445 15.2068 3.29079C16.297 3.12458 17.4391 3.29445 18.4854 3.60857C19.4408 3.89498 20.3973 4.34343 21.1452 5.01452C21.4181 5.25965 21.6815 5.55443 21.8263 5.89729C21.8576 5.97203 21.8806 6.04939 21.9015 6.12726C21.9099 6.15496 21.9219 6.28458 21.9219 6.21559C21.9219 6.25061 21.9219 6.28563 21.9219 6.32117C21.9219 6.83181 21.9219 7.34245 21.9219 7.85361C21.9219 11.473 21.9219 15.0924 21.9219 18.7113C21.9219 18.7129 21.9219 18.715 21.9219 18.7166C20.7109 18.3706 19.4414 18.1646 18.1901 18.0695C16.2155 17.9195 13.9174 18.093 12.3321 19.3965C12.3269 17.1078 12.3212 14.8191 12.3154 12.5304C12.8903 13.145 13.4653 13.7586 14.0397 14.3722C14.2712 14.6194 14.5033 14.8667 14.7348 15.1144C14.8284 15.2137 15.0113 15.2179 15.1043 15.1144C15.5716 14.5938 16.0383 14.0727 16.5056 13.5522C16.6033 13.4435 16.607 13.2908 16.5056 13.1826C15.1054 11.6873 13.7062 10.1915 12.3065 8.69613C12.3039 7.71667 12.3018 6.73721 12.2992 5.75774C12.2987 5.59206 12.2982 5.4269 12.2982 5.26122C12.2982 5.23142 12.2982 5.20215 12.2982 5.17236ZM8.47649 7.6644C8.30663 7.48252 8.13624 7.30116 7.96637 7.11927C8.34792 6.76177 8.72998 6.40479 9.11152 6.0473C11.2617 8.34386 13.4114 10.641 15.5606 12.9375C15.6955 13.0823 15.8314 13.2271 15.9657 13.3713C15.6155 13.7617 15.2653 14.1527 14.9146 14.5431C12.7691 12.2497 10.6225 9.95679 8.47649 7.6644ZM6.23271 17.8186C4.93025 17.9488 3.60583 18.2409 2.36712 18.6904C2.36712 15.5769 2.36712 12.4635 2.36712 9.34946C2.36712 8.57174 2.36712 7.79402 2.36712 7.01631C2.36712 6.80411 2.36712 6.59191 2.36712 6.37971C2.36712 6.1973 2.36085 6.21455 2.40841 6.04939C2.63264 5.27219 3.44171 4.71504 4.10131 4.33297C5.0421 3.78836 6.1078 3.45647 7.18082 3.30229C8.22457 3.15176 9.36344 3.20507 10.3366 3.64045C10.8028 3.84899 11.2105 4.15161 11.5455 4.53629C11.6595 4.66695 11.7541 4.81121 11.8424 4.96016C11.901 4.82009 11.9877 4.6889 12.0708 4.56921C11.9888 4.6889 11.9015 4.82061 11.8424 4.96069C11.8043 5.05163 11.775 5.14466 11.7755 5.23874C11.776 5.39345 11.776 5.54816 11.7766 5.70339C11.7781 6.35828 11.7797 7.01317 11.7813 7.66859C11.7818 7.82434 11.7818 7.98061 11.7823 8.13637C11.1499 7.46057 10.517 6.78425 9.88401 6.10845C9.6922 5.90304 9.50038 5.69816 9.30909 5.49328C9.20926 5.38665 9.04096 5.39868 8.93957 5.49328C8.43102 5.96942 7.92195 6.44556 7.4134 6.9217C7.32769 7.00167 7.31984 7.0968 7.3512 7.17938C7.36166 7.21805 7.37943 7.25621 7.41288 7.29175C8.87267 8.85136 10.3319 10.411 11.7917 11.9706C11.7975 14.3341 11.8032 16.6981 11.809 19.062C11.809 19.1363 11.809 19.21 11.8095 19.2842C11.81 19.5188 11.8111 19.7525 11.8111 19.9887C11.8111 19.7535 11.81 19.5194 11.8095 19.2842C10.3837 17.8568 8.2 17.6221 6.23271 17.8186ZM23.1716 20.6002C23.4162 20.6002 23.5416 20.4183 23.5484 20.2307C23.5416 20.4189 23.4167 20.6002 23.1716 20.6002Z" fill="black"/>
<path d="M15.1685 15.1085C15.0196 15.2522 15.1032 15.4837 15.2846 15.5454C15.9159 15.7628 16.5478 15.9802 17.1792 16.1987C17.3715 16.2661 17.5487 16.0597 17.5001 15.8778C17.3256 15.2156 17.151 14.555 16.9775 13.8933C16.9451 13.7684 16.851 13.7119 16.7522 13.7082C16.6816 13.6973 16.6069 13.7135 16.5405 13.7778C16.0832 14.2215 15.6259 14.6647 15.1685 15.1085ZM16.8703 15.5407C16.5275 15.4215 16.1841 15.3039 15.8402 15.1848C16.0889 14.9438 16.3372 14.7023 16.5865 14.4614C16.6816 14.821 16.7757 15.1806 16.8703 15.5407Z" fill="black"/>
<path d="M8.40677 4.88587C7.88411 5.34529 7.36145 5.80523 6.83879 6.26464C6.5853 6.4873 6.95639 6.85577 7.20831 6.63416C7.73097 6.17475 8.25363 5.71481 8.77629 5.25539C9.02978 5.03221 8.65869 4.66426 8.40677 4.88587Z" fill="black"/>
</g>
<defs>
<clipPath id="clip0_507_1556">
<rect width="24" height="24" fill="white"/>
</clipPath>
</defs>
</svg>
