<svg width="25" height="25" viewBox="0 0 25 25" fill="none" xmlns="http://www.w3.org/2000/svg">
<path d="M16.6667 8.33301C18.3244 8.33301 19.9141 8.99149 21.0862 10.1636C22.2583 11.3357 22.9167 12.9254 22.9167 14.583V21.8747H18.7501V14.583C18.7501 14.0305 18.5306 13.5006 18.1399 13.1099C17.7492 12.7192 17.2193 12.4997 16.6667 12.4997C16.1142 12.4997 15.5843 12.7192 15.1936 13.1099C14.8029 13.5006 14.5834 14.0305 14.5834 14.583V21.8747H10.4167V14.583C10.4167 12.9254 11.0752 11.3357 12.2473 10.1636C13.4194 8.99149 15.0091 8.33301 16.6667 8.33301Z" stroke="#15AF73" stroke-width="1.7" stroke-linecap="round" stroke-linejoin="round"/>
<path d="M6.24992 9.375H2.08325V21.875H6.24992V9.375Z" stroke="#15AF73" stroke-width="1.7" stroke-linecap="round" stroke-linejoin="round"/>
<path d="M4.16659 6.24967C5.31718 6.24967 6.24992 5.31693 6.24992 4.16634C6.24992 3.01575 5.31718 2.08301 4.16659 2.08301C3.01599 2.08301 2.08325 3.01575 2.08325 4.16634C2.08325 5.31693 3.01599 6.24967 4.16659 6.24967Z" stroke="#15AF73" stroke-width="1.7" stroke-linecap="round" stroke-linejoin="round"/>
</svg>
