<svg width="27" height="27" viewBox="0 0 27 27" fill="none" xmlns="http://www.w3.org/2000/svg">
<g clip-path="url(#clip0_57_1091)">
<path d="M4.16667 3H22.8333C23.1428 3 23.4395 3.12292 23.6583 3.34171C23.8771 3.5605 24 3.85725 24 4.16667V22.8333C24 23.1428 23.8771 23.4395 23.6583 23.6583C23.4395 23.8771 23.1428 24 22.8333 24H4.16667C3.85725 24 3.5605 23.8771 3.34171 23.6583C3.12292 23.4395 3 23.1428 3 22.8333V4.16667C3 3.85725 3.12292 3.5605 3.34171 3.34171C3.5605 3.12292 3.85725 3 4.16667 3ZM5.33333 5.33333V21.6667H21.6667V5.33333H5.33333ZM8.25 10C7.78587 10 7.34075 9.81563 7.01256 9.48744C6.68437 9.15925 6.5 8.71413 6.5 8.25C6.5 7.78587 6.68437 7.34075 7.01256 7.01256C7.34075 6.68437 7.78587 6.5 8.25 6.5C8.71413 6.5 9.15925 6.68437 9.48744 7.01256C9.81563 7.34075 10 7.78587 10 8.25C10 8.71413 9.81563 9.15925 9.48744 9.48744C9.15925 9.81563 8.71413 10 8.25 10ZM7.08333 11.1667H9.41667V19.9167H7.08333V11.1667ZM13.5 11.6683C14.1813 11.0092 14.977 10.5833 15.8333 10.5833C18.2495 10.5833 19.9167 12.5422 19.9167 14.9583V19.9167H17.5833V14.9583C17.5833 14.4168 17.3682 13.8975 16.9853 13.5147C16.6025 13.1318 16.0831 12.9167 15.5417 12.9167C15.0002 12.9167 14.4809 13.1318 14.098 13.5147C13.7151 13.8975 13.5 14.4168 13.5 14.9583V19.9167H11.1667V11.1667H13.5V11.6683Z" fill="#15AF73"/>
</g>
<defs>
<clipPath id="clip0_57_1091">
<rect width="27" height="27" fill="white"/>
</clipPath>
</defs>
</svg>
