<svg width="33" height="33" viewBox="0 0 33 33" fill="none" xmlns="http://www.w3.org/2000/svg">
<circle cx="16.5" cy="16.5" r="15.75" stroke="#15AF73" stroke-width="1.5"/>
<path d="M11.3002 9.5C14.6157 9.5 17.3641 11.9121 17.8676 15.0675C18.9838 13.9616 20.5247 13.2778 22.2252 13.2778H26.5002V15.6389C26.5002 19.0294 23.7357 21.7778 20.3252 21.7778H17.9502V26.5H16.0502V18.9444H14.1502C10.4775 18.9444 7.50024 15.9846 7.50024 12.3333V9.5H11.3002ZM24.6002 19.8889H17.9502C15.5895 19.8889 16.4502 18.1531 16.4502 20.5L16.0502 18.9444H20.3252C22.5002 19.5556 24.6002 17.9858 24.6002 15.6389V19.8889ZM15.6002 17.1389L9.40024 11.3889L17.8676 17.0556C17.8676 19.6632 11.5273 17.0556 14.1502 17.0556H16.0502V16.1111C16.0502 13.5035 18.2232 17.1389 15.6002 17.1389Z" fill="#15AF73"/>
</svg>
