<svg width="26" height="26" viewBox="0 0 26 26" fill="none" xmlns="http://www.w3.org/2000/svg">
<g clip-path="url(#clip0_57_1082)">
<path d="M2.2 2H23.8C24.1183 2 24.4235 2.12292 24.6485 2.34171C24.8736 2.5605 25 2.85725 25 3.16667V21.8333C25 22.1428 24.8736 22.4395 24.6485 22.6583C24.4235 22.8771 24.1183 23 23.8 23H2.2C1.88174 23 1.57652 22.8771 1.35147 22.6583C1.12643 22.4395 1 22.1428 1 21.8333V3.16667C1 2.85725 1.12643 2.5605 1.35147 2.34171C1.57652 2.12292 1.88174 2 2.2 2ZM22.6 6.94433L13.0864 15.2277L3.4 6.91867V20.6667H22.6V6.94433ZM4.0132 4.33333L13.0732 12.1057L22.0024 4.33333H4.0132Z" fill="#15AF73"/>
</g>
<defs>
<clipPath id="clip0_57_1082">
<rect width="26" height="26" fill="white"/>
</clipPath>
</defs>
</svg>
