<svg width="25" height="25" viewBox="0 0 25 25" fill="none" xmlns="http://www.w3.org/2000/svg">
<g clip-path="url(#clip0_57_1249)">
<path d="M15.8782 4.7029L8.85944 11.7206L8.12298 13.93L7.03965 15.0144L9.98548 17.9612L11.0688 16.8769L13.2792 16.1404L20.2969 9.12165L15.8782 4.7029ZM22.5074 8.38519C22.7026 8.58054 22.8123 8.84544 22.8123 9.12165C22.8123 9.39787 22.7026 9.66277 22.5074 9.85811L14.4042 17.9612L12.1959 18.6977L10.7219 20.1706C10.5266 20.3659 10.2617 20.4756 9.98548 20.4756C9.70927 20.4756 9.44436 20.3659 9.24902 20.1706L4.82923 15.7508C4.63395 15.5555 4.52425 15.2906 4.52425 15.0144C4.52425 14.7381 4.63395 14.4732 4.82923 14.2779L6.30215 12.805L7.03861 10.5956L15.1417 2.49249C15.3371 2.2972 15.602 2.1875 15.8782 2.1875C16.1544 2.1875 16.4193 2.2972 16.6146 2.49249L22.5074 8.38519ZM15.8782 7.64874L17.3511 9.12165L12.1949 14.2779L10.7219 12.805L15.8782 7.64874ZM4.46152 17.5935L7.40736 20.5404L5.93444 22.0133L1.51465 20.5404L4.46152 17.5935Z" fill="#15AF73"/>
</g>
<defs>
<clipPath id="clip0_57_1249">
<rect width="25" height="25" fill="white"/>
</clipPath>
</defs>
</svg>
